<svg xmlns="http://www.w3.org/2000/svg" version="1.1" xmlns:xlink="http://www.w3.org/1999/xlink" xmlns:svgjs="http://svgjs.dev/svgjs" width="1500" height="1500" viewBox="0 0 1500 1500"><rect width="1500" height="1500" fill="#ffffff"></rect><g transform="matrix(0.6666666666666666,0,0,0.6666666666666666,249.39393939393938,492.16077256343834)"><svg viewBox="0 0 396 204" data-background-color="#0c100e" preserveAspectRatio="xMidYMid meet" height="772" width="1500" xmlns="http://www.w3.org/2000/svg" xmlns:xlink="http://www.w3.org/1999/xlink"><g id="tight-bounds" transform="matrix(1,0,0,1,0.2400000000000091,0.20052279221229696)"><svg viewBox="0 0 395.52 203.59883375075816" height="203.59883375075816" width="395.52"><g><svg viewBox="0 0 395.52 203.59883375075816" height="203.59883375075816" width="395.52"><g><svg viewBox="0 0 869.8143341076624 447.74773463797624" height="203.59883375075816" width="395.52"><g transform="matrix(1,0,0,1,474.2943341076624,138.7711607869512)"><svg viewBox="0 0 395.52 170.20541306407384" height="170.20541306407384" width="395.52"><g id="textblocktransform"><svg viewBox="0 0 395.52 170.20541306407384" height="170.20541306407384" width="395.52" id="textblock"><g><svg viewBox="0 0 395.52 122.18525538461537" height="122.18525538461537" width="395.52"><g transform="matrix(1,0,0,1,0,0)"><svg width="395.52" viewBox="0.7000000000000011 -34 243.75000000000009 72.35" height="122.18525538461537" data-palette-color="#448974"><svg></svg><svg></svg><g class="wordmark-text-0" data-fill-palette-color="primary" id="text-0"><path d="M9.15 0.65v0c-2.333 0-4.157-0.71-5.47-2.13-1.32-1.413-1.98-3.387-1.98-5.92v0c0-2.5 0.533-4.733 1.6-6.7 1.067-1.967 2.533-3.517 4.4-4.65 1.867-1.133 3.983-1.7 6.35-1.7v0c1.6 0 2.867 0.267 3.8 0.8 0.933 0.533 1.4 1.267 1.4 2.2v0c0 0.833-0.4 1.65-1.2 2.45v0c-0.3 0.3-0.69 0.573-1.17 0.82-0.487 0.253-0.863 0.38-1.13 0.38v0c-0.3 0-0.55-0.117-0.75-0.35v0c-0.333-0.367-0.767-0.717-1.3-1.05-0.533-0.333-1.283-0.5-2.25-0.5v0c-1.633 0-2.967 0.557-4 1.67-1.033 1.12-1.55 2.58-1.55 4.38v0c0 1.633 0.467 2.95 1.4 3.95 0.933 1 2.167 1.5 3.7 1.5v0c0.8 0 1.677-0.143 2.63-0.43 0.947-0.28 1.787-0.687 2.52-1.22v0c0.367-0.333 0.75-0.5 1.15-0.5v0c0.667 0 1 0.417 1 1.25v0c0 1.1-0.55 2.15-1.65 3.15v0c-0.833 0.767-1.94 1.39-3.32 1.87-1.387 0.487-2.78 0.73-4.18 0.73zM23.95 0.55v0c-0.467 0-0.867-0.107-1.2-0.32-0.333-0.22-0.467-0.513-0.4-0.88v0c0.5-2.667 0.927-5.377 1.28-8.13 0.347-2.747 0.52-5.52 0.52-8.32v0c0-2.467-0.083-4.7-0.25-6.7-0.167-2-0.7-3.917-1.6-5.75v0c-0.167-0.367-0.3-0.683-0.4-0.95-0.1-0.267-0.15-0.517-0.15-0.75v0c0-0.633 0.377-1.25 1.13-1.85 0.747-0.6 1.537-0.9 2.37-0.9v0c1.167 0 1.967 0.733 2.4 2.2 0.433 1.467 0.65 3.633 0.65 6.5v0c0 3.433-0.2 6.427-0.6 8.98-0.4 2.547-0.75 4.487-1.05 5.82v0l0.2 0.1c0.667-1.767 1.473-3.417 2.42-4.95 0.953-1.533 2.063-2.767 3.33-3.7 1.267-0.933 2.733-1.4 4.4-1.4v0c1.767 0 3.11 0.533 4.03 1.6 0.913 1.067 1.37 2.383 1.37 3.95v0c0 0.667-0.067 1.307-0.2 1.92-0.133 0.62-0.283 1.213-0.45 1.78v0c-0.167 0.533-0.317 1.073-0.45 1.62-0.133 0.553-0.2 1.113-0.2 1.68v0c0 1.033 0.25 1.873 0.75 2.52 0.5 0.653 1.167 1.113 2 1.38v0c0.233 0.067 0.41 0.157 0.53 0.27 0.113 0.12 0.17 0.33 0.17 0.63v0c0 0.3-0.1 0.733-0.3 1.3-0.2 0.567-0.567 1.09-1.1 1.57-0.533 0.487-1.317 0.73-2.35 0.73v0c-1.333 0-2.367-0.477-3.1-1.43-0.733-0.947-1.1-2.17-1.1-3.67v0c0-0.733 0.077-1.483 0.23-2.25 0.147-0.767 0.32-1.5 0.52-2.2v0c0.167-0.7 0.317-1.36 0.45-1.98 0.133-0.613 0.2-1.137 0.2-1.57v0c0-1.533-0.8-2.3-2.4-2.3v0c-1.333 0-2.507 0.473-3.52 1.42-1.02 0.953-1.887 2.153-2.6 3.6-0.72 1.453-1.313 2.947-1.78 4.48v0 1.7c0 1.233-0.357 2.25-1.07 3.05-0.72 0.8-1.613 1.2-2.68 1.2zM55.6 0.65v0c-2.533 0-4.507-0.727-5.92-2.18-1.42-1.447-2.13-3.47-2.13-6.07v0c0-2.367 0.517-4.517 1.55-6.45 1.033-1.933 2.427-3.477 4.18-4.63 1.747-1.147 3.67-1.72 5.77-1.72v0c2 0 3.6 0.49 4.8 1.47 1.2 0.987 1.8 2.297 1.8 3.93v0c0 1.3-0.4 2.5-1.2 3.6-0.8 1.1-1.867 1.973-3.2 2.62-1.333 0.653-2.817 0.98-4.45 0.98v0c-2 0-3.633-0.45-4.9-1.35v0c0.033 1.533 0.56 2.767 1.58 3.7 1.013 0.933 2.32 1.4 3.92 1.4v0c0.967 0 1.96-0.177 2.98-0.53 1.013-0.347 1.887-0.82 2.62-1.42v0c0.467-0.4 0.9-0.6 1.3-0.6v0c0.333 0 0.61 0.107 0.83 0.32 0.213 0.22 0.32 0.497 0.32 0.83v0c0 0.733-0.633 1.7-1.9 2.9v0c-2.233 2.133-4.883 3.2-7.95 3.2zM56.35-11.1v0c1.2 0 2.2-0.25 3-0.75 0.8-0.5 1.2-1.133 1.2-1.9v0c0-0.633-0.267-1.127-0.8-1.48-0.533-0.347-1.267-0.52-2.2-0.52v0c-1.233 0-2.307 0.323-3.22 0.97-0.92 0.653-1.58 1.563-1.98 2.73v0c0.467 0.3 1.067 0.533 1.8 0.7 0.733 0.167 1.467 0.25 2.2 0.25zM72.3 0.55v0c-1.2 0-1.733-0.4-1.6-1.2v0c0.367-1.433 0.677-2.893 0.93-4.38 0.247-1.48 0.37-2.903 0.37-4.27v0c0-1.767-0.11-3.06-0.33-3.88-0.213-0.813-0.503-1.38-0.87-1.7-0.367-0.313-0.817-0.553-1.35-0.72v0c-0.233-0.1-0.443-0.233-0.63-0.4-0.18-0.167-0.27-0.4-0.27-0.7v0c0-0.467 0.183-0.983 0.55-1.55 0.367-0.567 0.89-1.06 1.57-1.48 0.687-0.413 1.463-0.62 2.33-0.62v0c1.133 0 1.917 0.39 2.35 1.17 0.433 0.787 0.65 1.813 0.65 3.08v0c0 0.833-0.083 1.767-0.25 2.8-0.167 1.033-0.333 1.967-0.5 2.8v0l0.1 0.05c0.533-1.767 1.19-3.4 1.97-4.9 0.787-1.5 1.737-2.717 2.85-3.65 1.12-0.933 2.413-1.4 3.88-1.4v0c1.5 0 2.683 0.507 3.55 1.52 0.867 1.02 1.3 2.513 1.3 4.48v0 1.1c0.967-2.033 2.14-3.733 3.52-5.1 1.387-1.367 3.063-2.05 5.03-2.05v0c1.6 0 2.85 0.533 3.75 1.6 0.9 1.067 1.35 2.4 1.35 4v0c0 0.633-0.067 1.24-0.2 1.82-0.133 0.587-0.283 1.163-0.45 1.73v0c-0.133 0.533-0.267 1.083-0.4 1.65-0.133 0.567-0.2 1.133-0.2 1.7v0c0 2 0.85 3.3 2.55 3.9v0c0.233 0.1 0.417 0.207 0.55 0.32 0.133 0.12 0.2 0.33 0.2 0.63v0c0 0.3-0.093 0.733-0.28 1.3-0.18 0.567-0.537 1.09-1.07 1.57-0.533 0.487-1.3 0.73-2.3 0.73v0c-1.3 0-2.3-0.477-3-1.43-0.7-0.947-1.05-2.153-1.05-3.62v0c0-0.733 0.067-1.5 0.2-2.3 0.133-0.8 0.3-1.567 0.5-2.3v0c0.167-0.667 0.307-1.3 0.42-1.9 0.12-0.6 0.18-1.117 0.18-1.55v0c0-0.8-0.19-1.383-0.57-1.75-0.387-0.367-0.897-0.55-1.53-0.55v0c-1.067 0-2.027 0.333-2.88 1-0.847 0.667-1.597 1.533-2.25 2.6-0.647 1.067-1.203 2.233-1.67 3.5v0c0.033 0.3 0.06 0.69 0.08 1.17 0.013 0.487 0.02 0.913 0.02 1.28v0c0 0.633-0.043 1.3-0.13 2-0.08 0.7-0.237 1.283-0.47 1.75v0c-0.267 0.633-0.657 1.15-1.17 1.55-0.52 0.4-1.213 0.6-2.08 0.6v0c-0.367 0-0.717-0.073-1.05-0.22-0.333-0.153-0.5-0.397-0.5-0.73v0c0-0.133 0.1-0.727 0.3-1.78 0.2-1.047 0.4-2.337 0.6-3.87 0.2-1.533 0.3-3.033 0.3-4.5v0c0-1.6-0.167-2.71-0.5-3.33-0.333-0.613-0.833-0.92-1.5-0.92v0c-0.833 0-1.627 0.35-2.38 1.05-0.747 0.7-1.43 1.6-2.05 2.7-0.613 1.1-1.147 2.25-1.6 3.45-0.447 1.2-0.803 2.317-1.07 3.35v0 0.55c0 1.233-0.343 2.25-1.03 3.05-0.68 0.8-1.603 1.2-2.77 1.2zM117.9 0.65v0c-1.233 0-2.29-0.217-3.17-0.65-0.887-0.433-1.663-0.983-2.33-1.65v0c-0.333 0.567-0.723 1.073-1.17 1.52-0.453 0.453-0.963 0.68-1.53 0.68v0c-0.367 0-0.717-0.107-1.05-0.32-0.333-0.22-0.467-0.513-0.4-0.88v0c0.5-2.667 0.927-5.367 1.28-8.1 0.347-2.733 0.52-5.517 0.52-8.35v0c0-2.367-0.083-4.583-0.25-6.65-0.167-2.067-0.683-3.967-1.55-5.7v0c-0.167-0.333-0.307-0.65-0.42-0.95-0.12-0.3-0.18-0.583-0.18-0.85v0c0-0.633 0.367-1.25 1.1-1.85 0.733-0.6 1.517-0.9 2.35-0.9v0c1.2 0 2.017 0.733 2.45 2.2 0.433 1.467 0.65 3.633 0.65 6.5v0c0 2.433-0.107 4.657-0.32 6.67-0.22 2.02-0.463 3.747-0.73 5.18v0c0.933-1.967 2.21-3.627 3.83-4.98 1.613-1.347 3.437-2.02 5.47-2.02v0c2.033 0 3.627 0.673 4.78 2.02 1.147 1.353 1.72 3.18 1.72 5.48v0c0 1.7-0.267 3.357-0.8 4.97-0.533 1.62-1.283 3.08-2.25 4.38-0.967 1.3-2.123 2.333-3.47 3.1-1.353 0.767-2.863 1.15-4.53 1.15zM119.05-4.75v0c1.9 0 3.367-0.6 4.4-1.8 1.033-1.2 1.55-2.583 1.55-4.15v0c0-1.367-0.373-2.427-1.12-3.18-0.753-0.747-1.747-1.12-2.98-1.12v0c-1.233 0-2.333 0.373-3.3 1.12-0.967 0.753-1.783 1.737-2.45 2.95-0.667 1.22-1.183 2.53-1.55 3.93v0c0.767 0.733 1.627 1.29 2.58 1.67 0.947 0.387 1.903 0.58 2.87 0.58zM139 0.65v0c-2 0-3.607-0.627-4.82-1.88-1.22-1.247-1.83-3.037-1.83-5.37v0c0-1.667 0.327-3.327 0.98-4.98 0.647-1.647 1.587-3.137 2.82-4.47 1.233-1.333 2.717-2.4 4.45-3.2 1.733-0.8 3.683-1.2 5.85-1.2v0c2 0 3.71 0.34 5.13 1.02 1.413 0.687 2.12 1.613 2.12 2.78v0c0 0.3-0.033 0.69-0.1 1.17-0.067 0.487-0.15 0.88-0.25 1.18v0c-0.1 0.267-0.24 0.507-0.42 0.72-0.187 0.22-0.43 0.33-0.73 0.33v0c-0.133 0-0.383-0.05-0.75-0.15v0c-0.133 0.7-0.233 1.383-0.3 2.05-0.067 0.667-0.1 1.333-0.1 2v0c0 1.267 0.193 2.39 0.58 3.37 0.38 0.987 1.137 1.597 2.27 1.83v0c0.3 0.067 0.543 0.167 0.73 0.3 0.18 0.133 0.27 0.417 0.27 0.85v0c0 0.367-0.09 0.833-0.27 1.4-0.187 0.567-0.537 1.073-1.05 1.52-0.52 0.453-1.263 0.68-2.23 0.68v0c-1.3 0-2.3-0.477-3-1.43-0.7-0.947-1.05-2.303-1.05-4.07v0c-0.9 1.633-2.04 2.967-3.42 4-1.387 1.033-3.013 1.55-4.88 1.55zM140.6-4.55v0c1.333 0 2.51-0.417 3.53-1.25 1.013-0.833 1.803-1.883 2.37-3.15v0c0.367-0.8 0.65-1.677 0.85-2.63 0.2-0.947 0.333-1.887 0.4-2.82v0c-0.567-0.267-1.217-0.483-1.95-0.65-0.733-0.167-1.5-0.25-2.3-0.25v0c-2.033 0-3.71 0.6-5.03 1.8-1.313 1.2-1.97 2.7-1.97 4.5v0c0 1.333 0.367 2.407 1.1 3.22 0.733 0.82 1.733 1.23 3 1.23z" fill="#000000" fill-rule="nonzero" stroke="none" stroke-width="1" stroke-linecap="butt" stroke-linejoin="miter" stroke-miterlimit="10" stroke-dasharray="" stroke-dashoffset="0" font-family="none" font-weight="none" font-size="none" text-anchor="none" style="mix-blend-mode: normal" data-fill-palette-color="primary" opacity="1"></path><path transform="translate(0,37.65)" d="M9.8 0.65v0c-1.633 0-3.14-0.243-4.52-0.73-1.387-0.48-2.497-1.153-3.33-2.02-0.833-0.867-1.25-1.883-1.25-3.05v0c0-0.767 0.183-1.443 0.55-2.03 0.367-0.58 0.867-0.87 1.5-0.87v0c0.4 0 0.817 0.15 1.25 0.45v0c0.833 0.733 1.91 1.373 3.23 1.92 1.313 0.553 2.72 0.83 4.22 0.83v0c1.967 0 3.577-0.393 4.83-1.18 1.247-0.78 1.87-1.837 1.87-3.17v0c0-1.267-0.583-2.183-1.75-2.75-1.167-0.567-2.783-1.1-4.85-1.6v0c-1.533-0.367-3.007-0.833-4.42-1.4-1.42-0.567-2.587-1.357-3.5-2.37-0.92-1.02-1.38-2.38-1.38-4.08v0c0-1.3 0.283-2.593 0.85-3.88 0.567-1.28 1.4-2.453 2.5-3.52 1.1-1.067 2.433-1.927 4-2.58 1.567-0.647 3.333-0.97 5.3-0.97v0c1.467 0 2.81 0.167 4.03 0.5 1.213 0.333 2.18 0.8 2.9 1.4 0.713 0.6 1.07 1.333 1.07 2.2v0c0 0.667-0.183 1.25-0.55 1.75-0.367 0.5-0.8 0.89-1.3 1.17-0.5 0.287-0.933 0.43-1.3 0.43v0c-0.333 0-0.783-0.15-1.35-0.45v0c-0.933-0.5-1.973-0.893-3.12-1.18-1.153-0.28-2.163-0.42-3.03-0.42v0c-1.633 0-2.957 0.357-3.97 1.07-1.02 0.72-1.53 1.563-1.53 2.53v0c0 1.067 0.643 1.957 1.93 2.67 1.28 0.72 3.587 1.48 6.92 2.28v0c2.267 0.6 4.033 1.423 5.3 2.47 1.267 1.053 1.9 2.713 1.9 4.98v0c0 2.033-0.54 3.933-1.62 5.7-1.087 1.767-2.603 3.19-4.55 4.27-1.953 1.087-4.23 1.63-6.83 1.63zM29.4 0.55v0c-1.2 0-1.733-0.4-1.6-1.2v0c0.367-1.433 0.677-2.893 0.93-4.38 0.247-1.48 0.37-2.903 0.37-4.27v0c0-1.767-0.107-3.06-0.32-3.88-0.22-0.813-0.513-1.38-0.88-1.7-0.367-0.313-0.817-0.553-1.35-0.72v0c-0.233-0.1-0.44-0.233-0.62-0.4-0.187-0.167-0.28-0.4-0.28-0.7v0c0-0.467 0.183-0.983 0.55-1.55 0.367-0.567 0.893-1.06 1.58-1.48 0.68-0.413 1.453-0.62 2.32-0.62v0c1.133 0 1.917 0.39 2.35 1.17 0.433 0.787 0.65 1.813 0.65 3.08v0c0 0.833-0.083 1.767-0.25 2.8-0.167 1.033-0.333 1.967-0.5 2.8v0l0.1 0.05c0.533-1.767 1.193-3.4 1.98-4.9 0.78-1.5 1.73-2.717 2.85-3.65 1.113-0.933 2.403-1.4 3.87-1.4v0c1.5 0 2.683 0.507 3.55 1.52 0.867 1.02 1.3 2.513 1.3 4.48v0 1.1c0.967-2.033 2.143-3.733 3.53-5.1 1.38-1.367 3.053-2.05 5.02-2.05v0c1.6 0 2.85 0.533 3.75 1.6 0.9 1.067 1.35 2.4 1.35 4v0c0 0.633-0.067 1.24-0.2 1.82-0.133 0.587-0.283 1.163-0.45 1.73v0c-0.133 0.533-0.267 1.083-0.4 1.65-0.133 0.567-0.2 1.133-0.2 1.7v0c0 2 0.85 3.3 2.55 3.9v0c0.233 0.1 0.417 0.207 0.55 0.32 0.133 0.12 0.2 0.33 0.2 0.63v0c0 0.3-0.09 0.733-0.27 1.3-0.187 0.567-0.547 1.09-1.08 1.57-0.533 0.487-1.3 0.73-2.3 0.73v0c-1.3 0-2.3-0.477-3-1.43-0.7-0.947-1.05-2.153-1.05-3.62v0c0-0.733 0.067-1.5 0.2-2.3 0.133-0.8 0.3-1.567 0.5-2.3v0c0.167-0.667 0.31-1.3 0.43-1.9 0.113-0.6 0.17-1.117 0.17-1.55v0c0-0.8-0.19-1.383-0.57-1.75-0.387-0.367-0.897-0.55-1.53-0.55v0c-1.067 0-2.023 0.333-2.87 1-0.853 0.667-1.603 1.533-2.25 2.6-0.653 1.067-1.213 2.233-1.68 3.5v0c0.033 0.3 0.06 0.69 0.08 1.17 0.013 0.487 0.02 0.913 0.02 1.28v0c0 0.633-0.04 1.3-0.12 2-0.087 0.7-0.247 1.283-0.48 1.75v0c-0.267 0.633-0.657 1.15-1.17 1.55-0.52 0.4-1.213 0.6-2.08 0.6v0c-0.367 0-0.717-0.073-1.05-0.22-0.333-0.153-0.5-0.397-0.5-0.73v0c0-0.133 0.1-0.727 0.3-1.78 0.2-1.047 0.4-2.337 0.6-3.87 0.2-1.533 0.3-3.033 0.3-4.5v0c0-1.6-0.167-2.71-0.5-3.33-0.333-0.613-0.833-0.92-1.5-0.92v0c-0.833 0-1.623 0.35-2.37 1.05-0.753 0.7-1.437 1.6-2.05 2.7-0.62 1.1-1.153 2.25-1.6 3.45-0.453 1.2-0.813 2.317-1.08 3.35v0 0.55c0 1.233-0.34 2.25-1.02 3.05-0.687 0.8-1.613 1.2-2.78 1.2zM71.1 0.65v0c-2 0-3.607-0.627-4.82-1.88-1.22-1.247-1.83-3.037-1.83-5.37v0c0-1.667 0.327-3.327 0.98-4.98 0.647-1.647 1.587-3.137 2.82-4.47 1.233-1.333 2.717-2.4 4.45-3.2 1.733-0.8 3.683-1.2 5.85-1.2v0c2 0 3.71 0.34 5.13 1.02 1.413 0.687 2.12 1.613 2.12 2.78v0c0 0.3-0.033 0.69-0.1 1.17-0.067 0.487-0.15 0.88-0.25 1.18v0c-0.1 0.267-0.24 0.507-0.42 0.72-0.187 0.22-0.43 0.33-0.73 0.33v0c-0.133 0-0.383-0.05-0.75-0.15v0c-0.133 0.7-0.233 1.383-0.3 2.05-0.067 0.667-0.1 1.333-0.1 2v0c0 1.267 0.193 2.39 0.58 3.37 0.38 0.987 1.137 1.597 2.27 1.83v0c0.3 0.067 0.543 0.167 0.73 0.3 0.18 0.133 0.27 0.417 0.27 0.85v0c0 0.367-0.09 0.833-0.27 1.4-0.187 0.567-0.537 1.073-1.05 1.52-0.52 0.453-1.263 0.68-2.23 0.68v0c-1.3 0-2.3-0.477-3-1.43-0.7-0.947-1.05-2.303-1.05-4.07v0c-0.9 1.633-2.04 2.967-3.42 4-1.387 1.033-3.013 1.55-4.88 1.55zM72.7-4.55v0c1.333 0 2.51-0.417 3.53-1.25 1.013-0.833 1.803-1.883 2.37-3.15v0c0.367-0.8 0.65-1.677 0.85-2.63 0.2-0.947 0.333-1.887 0.4-2.82v0c-0.567-0.267-1.217-0.483-1.95-0.65-0.733-0.167-1.5-0.25-2.3-0.25v0c-2.033 0-3.707 0.6-5.02 1.8-1.32 1.2-1.98 2.7-1.98 4.5v0c0 1.333 0.367 2.407 1.1 3.22 0.733 0.82 1.733 1.23 3 1.23zM93.1 0.55v0c-0.533 0-0.957-0.09-1.27-0.27-0.32-0.187-0.43-0.497-0.33-0.93v0c0.367-1.433 0.677-2.893 0.93-4.38 0.247-1.48 0.37-2.903 0.37-4.27v0c0-1.767-0.107-3.06-0.32-3.88-0.22-0.813-0.513-1.38-0.88-1.7-0.367-0.313-0.817-0.553-1.35-0.72v0c-0.233-0.1-0.44-0.233-0.62-0.4-0.187-0.167-0.28-0.4-0.28-0.7v0c0-0.467 0.183-0.983 0.55-1.55 0.367-0.567 0.883-1.06 1.55-1.48 0.667-0.413 1.433-0.62 2.3-0.62v0c1.133 0 1.927 0.39 2.38 1.17 0.447 0.787 0.67 1.813 0.67 3.08v0c0.6-1.333 1.343-2.393 2.23-3.18 0.88-0.78 1.987-1.17 3.32-1.17v0c0.9 0 1.65 0.2 2.25 0.6 0.6 0.4 0.9 1.05 0.9 1.95v0c0 0.9-0.29 1.74-0.87 2.52-0.587 0.787-1.18 1.18-1.78 1.18v0c-0.1 0-0.217-0.017-0.35-0.05-0.133-0.033-0.25-0.117-0.35-0.25v0c-0.433-0.533-0.967-0.8-1.6-0.8v0c-0.967 0-1.817 0.633-2.55 1.9-0.733 1.267-1.133 3.017-1.2 5.25v0c0.033 0.833 0.06 1.683 0.08 2.55 0.013 0.867 0.02 1.5 0.02 1.9v0c0 1.233-0.34 2.25-1.02 3.05-0.687 0.8-1.613 1.2-2.78 1.2zM114.05 0.65v0c-2.033 0-3.49-0.677-4.37-2.03-0.887-1.347-1.33-3.087-1.33-5.22v0c0-0.767 0.043-1.517 0.13-2.25 0.08-0.733 0.17-1.467 0.27-2.2v0c0.1-0.733 0.2-1.45 0.3-2.15 0.1-0.7 0.183-1.367 0.25-2v0c-0.7 0.2-1.4 0.3-2.1 0.3v0c-0.733 0-1.1-0.3-1.1-0.9v0c0-0.633 0.283-1.41 0.85-2.33 0.567-0.913 1.277-1.82 2.13-2.72 0.847-0.9 1.697-1.66 2.55-2.28 0.847-0.613 1.57-0.92 2.17-0.92v0c0.733 0 1.1 0.633 1.1 1.9v0c0 0.333-0.023 0.673-0.07 1.02-0.053 0.353-0.113 0.713-0.18 1.08v0c0.633-0.133 1.277-0.25 1.93-0.35 0.647-0.1 1.27-0.15 1.87-0.15v0c0.767 0 1.36 0.133 1.78 0.4 0.413 0.267 0.62 0.783 0.62 1.55v0c0 0.8-0.19 1.6-0.57 2.4-0.387 0.8-0.813 1.2-1.28 1.2v0c-0.1 0-0.267-0.017-0.5-0.05-0.233-0.033-0.517-0.083-0.85-0.15v0c-0.433-0.1-0.983-0.2-1.65-0.3-0.667-0.1-1.467-0.15-2.4-0.15v0c-0.233 1.033-0.44 2.09-0.62 3.17-0.187 1.087-0.28 2.063-0.28 2.93v0c0 1.933 0.483 3.25 1.45 3.95 0.967 0.7 2.367 1.05 4.2 1.05v0c0.567 0 0.967 0.09 1.2 0.27 0.233 0.187 0.35 0.513 0.35 0.98v0c0 1.1-0.567 2.033-1.7 2.8-1.133 0.767-2.517 1.15-4.15 1.15zM133.1 0.7v0c-1.133 0-2.007-0.327-2.62-0.98-0.62-0.647-0.963-1.887-1.03-3.72v0c-0.033-1.967-0.133-3.917-0.3-5.85-0.167-1.933-0.433-3.767-0.8-5.5v0c-0.5-2.533-1.183-4.817-2.05-6.85-0.867-2.033-2.083-3.783-3.65-5.25v0c-0.267-0.267-0.483-0.517-0.65-0.75-0.167-0.233-0.25-0.5-0.25-0.8v0c0-0.7 0.367-1.377 1.1-2.03 0.733-0.647 1.6-0.97 2.6-0.97v0c1.167 0 2.167 0.5 3 1.5 0.833 1 1.55 2.4 2.15 4.2v0c0.7 1.833 1.25 3.833 1.65 6 0.4 2.167 0.677 4.373 0.83 6.62 0.147 2.253 0.22 4.43 0.22 6.53v0c0 0.733 0.1 1.217 0.3 1.45 0.2 0.233 0.55 0.35 1.05 0.35v0c1.1 0 2.193-0.333 3.28-1 1.08-0.667 2.063-1.577 2.95-2.73 0.88-1.147 1.587-2.42 2.12-3.82 0.533-1.4 0.817-2.817 0.85-4.25v0c0.033-1.5-0.223-2.96-0.77-4.38-0.553-1.413-1.263-2.62-2.13-3.62v0c-0.233-0.267-0.407-0.51-0.52-0.73-0.12-0.213-0.18-0.437-0.18-0.67v0c0-0.533 0.217-1.05 0.65-1.55 0.433-0.5 0.933-0.917 1.5-1.25 0.567-0.333 1.05-0.5 1.45-0.5v0c0.833 0 1.543 0.607 2.13 1.82 0.58 1.22 1.07 2.697 1.47 4.43v0c0.567 2.2 0.967 4.667 1.2 7.4 0.233 2.733 0.35 5.617 0.35 8.65v0c0 0.833 0.083 1.4 0.25 1.7 0.167 0.3 0.533 0.45 1.1 0.45v0c1.2 0 2.367-0.433 3.5-1.3 1.133-0.867 2.143-2.06 3.03-3.58 0.88-1.513 1.58-3.247 2.1-5.2 0.513-1.947 0.77-4.003 0.77-6.17v0c0-1.633-0.123-2.96-0.37-3.98-0.253-1.013-0.497-1.737-0.73-2.17v0c-0.333-0.633-0.5-1.167-0.5-1.6v0c0-0.5 0.227-0.977 0.68-1.43 0.447-0.447 0.987-0.82 1.62-1.12 0.633-0.3 1.183-0.45 1.65-0.45v0c0.733 0 1.26 0.307 1.58 0.92 0.313 0.62 0.513 1.38 0.6 2.28 0.08 0.9 0.12 1.75 0.12 2.55v0c0 2.3-0.24 4.707-0.72 7.22-0.487 2.52-1.18 4.97-2.08 7.35-0.9 2.387-1.973 4.537-3.22 6.45-1.253 1.92-2.663 3.453-4.23 4.6-1.567 1.153-3.25 1.73-5.05 1.73v0c-1.2 0-2.083-0.267-2.65-0.8-0.567-0.533-0.933-1.283-1.1-2.25-0.167-0.967-0.25-2.1-0.25-3.4v0c0-0.767 0.01-1.493 0.03-2.18 0.013-0.68 0.02-1.303 0.02-1.87v0c-1.533 3.433-3.383 6.04-5.55 7.82-2.167 1.787-4.333 2.68-6.5 2.68zM171.3 0.65v0c-2 0-3.607-0.627-4.82-1.88-1.22-1.247-1.83-3.037-1.83-5.37v0c0-1.667 0.327-3.327 0.98-4.98 0.647-1.647 1.587-3.137 2.82-4.47 1.233-1.333 2.717-2.4 4.45-3.2 1.733-0.8 3.683-1.2 5.85-1.2v0c2 0 3.71 0.34 5.13 1.02 1.413 0.687 2.12 1.613 2.12 2.78v0c0 0.3-0.033 0.69-0.1 1.17-0.067 0.487-0.15 0.88-0.25 1.18v0c-0.1 0.267-0.24 0.507-0.42 0.72-0.187 0.22-0.43 0.33-0.73 0.33v0c-0.133 0-0.383-0.05-0.75-0.15v0c-0.133 0.7-0.233 1.383-0.3 2.05-0.067 0.667-0.1 1.333-0.1 2v0c0 1.267 0.193 2.39 0.58 3.37 0.38 0.987 1.137 1.597 2.27 1.83v0c0.3 0.067 0.543 0.167 0.73 0.3 0.18 0.133 0.27 0.417 0.27 0.85v0c0 0.367-0.09 0.833-0.27 1.4-0.187 0.567-0.537 1.073-1.05 1.52-0.52 0.453-1.263 0.68-2.23 0.68v0c-1.3 0-2.3-0.477-3-1.43-0.7-0.947-1.05-2.303-1.05-4.07v0c-0.9 1.633-2.04 2.967-3.42 4-1.387 1.033-3.013 1.55-4.88 1.55zM172.9-4.55v0c1.333 0 2.51-0.417 3.53-1.25 1.013-0.833 1.803-1.883 2.37-3.15v0c0.367-0.8 0.65-1.677 0.85-2.63 0.2-0.947 0.333-1.887 0.4-2.82v0c-0.567-0.267-1.217-0.483-1.95-0.65-0.733-0.167-1.5-0.25-2.3-0.25v0c-2.033 0-3.707 0.6-5.02 1.8-1.32 1.2-1.98 2.7-1.98 4.5v0c0 1.333 0.367 2.407 1.1 3.22 0.733 0.82 1.733 1.23 3 1.23zM196.9 0.65v0c-1.233 0-2.383-0.183-3.45-0.55-1.067-0.367-1.933-0.883-2.6-1.55-0.667-0.667-1-1.467-1-2.4v0c0-0.5 0.127-0.977 0.38-1.43 0.247-0.447 0.653-0.67 1.22-0.67v0c0.3 0 0.617 0.083 0.95 0.25v0c0.6 0.333 1.367 0.64 2.3 0.92 0.933 0.287 1.917 0.43 2.95 0.43v0c1.167 0 2.2-0.167 3.1-0.5 0.9-0.333 1.35-0.8 1.35-1.4v0c0-0.467-0.34-0.8-1.02-1-0.687-0.2-1.83-0.417-3.43-0.65v0c-1.1-0.2-2.167-0.433-3.2-0.7-1.033-0.267-1.883-0.727-2.55-1.38-0.667-0.647-1-1.603-1-2.87v0c0-1.233 0.343-2.427 1.03-3.58 0.68-1.147 1.703-2.103 3.07-2.87 1.367-0.767 3.033-1.15 5-1.15v0c1.033 0 2.033 0.117 3 0.35 0.967 0.233 1.767 0.583 2.4 1.05 0.633 0.467 0.95 1.05 0.95 1.75v0c0 0.6-0.207 1.15-0.62 1.65-0.42 0.5-0.903 0.907-1.45 1.22-0.553 0.32-1.013 0.48-1.38 0.48v0c-0.267 0-0.583-0.183-0.95-0.55v0c-0.567-0.467-1.19-0.793-1.87-0.98-0.687-0.18-1.363-0.27-2.03-0.27v0c-1 0-1.807 0.15-2.42 0.45-0.62 0.3-0.93 0.683-0.93 1.15v0c0 0.433 0.26 0.783 0.78 1.05 0.513 0.267 1.153 0.457 1.92 0.57 0.767 0.12 1.5 0.23 2.2 0.33v0c1.933 0.267 3.467 0.723 4.6 1.37 1.133 0.653 1.7 1.797 1.7 3.43v0c0 1.267-0.357 2.523-1.07 3.77-0.72 1.253-1.753 2.28-3.1 3.08-1.353 0.8-2.963 1.2-4.83 1.2zM217.5 0.65v0c-2.033 0-3.49-0.677-4.37-2.03-0.887-1.347-1.33-3.087-1.33-5.22v0c0-0.767 0.043-1.517 0.13-2.25 0.08-0.733 0.17-1.467 0.27-2.2v0c0.1-0.733 0.2-1.45 0.3-2.15 0.1-0.7 0.183-1.367 0.25-2v0c-0.7 0.2-1.4 0.3-2.1 0.3v0c-0.733 0-1.1-0.3-1.1-0.9v0c0-0.633 0.283-1.41 0.85-2.33 0.567-0.913 1.277-1.82 2.13-2.72 0.847-0.9 1.697-1.66 2.55-2.28 0.847-0.613 1.57-0.92 2.17-0.92v0c0.733 0 1.1 0.633 1.1 1.9v0c0 0.333-0.023 0.673-0.07 1.02-0.053 0.353-0.113 0.713-0.18 1.08v0c0.633-0.133 1.277-0.25 1.93-0.35 0.647-0.1 1.27-0.15 1.87-0.15v0c0.767 0 1.36 0.133 1.78 0.4 0.413 0.267 0.62 0.783 0.62 1.55v0c0 0.8-0.19 1.6-0.57 2.4-0.387 0.8-0.813 1.2-1.28 1.2v0c-0.1 0-0.267-0.017-0.5-0.05-0.233-0.033-0.517-0.083-0.85-0.15v0c-0.433-0.1-0.983-0.2-1.65-0.3-0.667-0.1-1.467-0.15-2.4-0.15v0c-0.233 1.033-0.44 2.09-0.62 3.17-0.187 1.087-0.28 2.063-0.28 2.93v0c0 1.933 0.483 3.25 1.45 3.95 0.967 0.7 2.367 1.05 4.2 1.05v0c0.567 0 0.967 0.09 1.2 0.27 0.233 0.187 0.35 0.513 0.35 0.98v0c0 1.1-0.567 2.033-1.7 2.8-1.133 0.767-2.517 1.15-4.15 1.15zM234.4 0.65v0c-2.533 0-4.507-0.727-5.92-2.18-1.42-1.447-2.13-3.47-2.13-6.07v0c0-2.367 0.517-4.517 1.55-6.45 1.033-1.933 2.427-3.477 4.18-4.63 1.747-1.147 3.67-1.72 5.77-1.72v0c2 0 3.6 0.49 4.8 1.47 1.2 0.987 1.8 2.297 1.8 3.93v0c0 1.3-0.4 2.5-1.2 3.6-0.8 1.1-1.867 1.973-3.2 2.62-1.333 0.653-2.817 0.98-4.45 0.98v0c-2 0-3.633-0.45-4.9-1.35v0c0.033 1.533 0.56 2.767 1.58 3.7 1.013 0.933 2.32 1.4 3.92 1.4v0c0.967 0 1.96-0.177 2.98-0.53 1.013-0.347 1.887-0.82 2.62-1.42v0c0.467-0.4 0.9-0.6 1.3-0.6v0c0.333 0 0.61 0.107 0.83 0.32 0.213 0.22 0.32 0.497 0.32 0.83v0c0 0.733-0.633 1.7-1.9 2.9v0c-2.233 2.133-4.883 3.2-7.95 3.2zM235.15-11.1v0c1.2 0 2.2-0.25 3-0.75 0.8-0.5 1.2-1.133 1.2-1.9v0c0-0.633-0.267-1.127-0.8-1.48-0.533-0.347-1.267-0.52-2.2-0.52v0c-1.233 0-2.307 0.323-3.22 0.97-0.92 0.653-1.58 1.563-1.98 2.73v0c0.467 0.3 1.067 0.533 1.8 0.7 0.733 0.167 1.467 0.25 2.2 0.25z" fill="#000000" fill-rule="nonzero" stroke="none" stroke-width="1" stroke-linecap="butt" stroke-linejoin="miter" stroke-miterlimit="10" stroke-dasharray="" stroke-dashoffset="0" font-family="none" font-weight="none" font-size="none" text-anchor="none" style="mix-blend-mode: normal" data-fill-palette-color="secondary" opacity="1"></path></g></svg></g></svg></g><g transform="matrix(1,0,0,1,0,135.45855511945845)"><svg viewBox="0 0 395.52 34.746857944615385" height="34.746857944615385" width="395.52"><g transform="matrix(1,0,0,1,0,0)"><svg width="395.52" viewBox="1.5 -38.7 504.83 44.35" height="34.746857944615385" data-palette-color="#788482"><path d="M16.05 0.55L16.05 0.55Q9.5 0.55 5.5-3.85 1.5-8.25 1.5-15.5L1.5-15.5Q1.5-23.75 6.5-29.4 11.5-35.05 18.8-35.05L18.8-35.05Q21.7-35.05 24.18-34.52 26.65-34 27.7-33.45L27.7-33.45 28.7-32.9 25.8-25.95Q24.3-26.95 21.75-27.83 19.2-28.7 17.25-28.7L17.25-28.7Q13.2-28.7 10.75-25.85 8.3-23 8.3-18.3L8.3-18.3Q8.3-11.95 10.63-8.4 12.95-4.85 17.1-4.85L17.1-4.85Q19.8-4.85 22.2-5.6L22.2-5.6 22.2-13.35 15.75-13.35 16.25-18.4 28.25-18.4 27.8-10.25 28.15-1.6Q20.8 0.55 16.05 0.55ZM42.62-10.45Q42.62-16.85 46.07-21.3 49.52-25.75 54.14-25.75 58.77-25.75 61.34-22.75 63.92-19.75 63.92-14.8L63.92-14.8Q63.92-8.2 60.59-3.83 57.27 0.55 52.22 0.55L52.22 0.55Q48.07 0.55 45.34-2.58 42.62-5.7 42.62-10.45L42.62-10.45ZM58.32-12.2L58.32-12.2Q58.32-19.45 53.37-19.45L53.37-19.45Q48.22-19.45 48.22-12.65L48.22-12.65Q48.22-9.1 49.67-7.1 51.12-5.1 53.49-5.1 55.87-5.1 57.09-6.93 58.32-8.75 58.32-12.2ZM107.9 0.55L107.9 0.55Q101.35 0.55 97.35-3.85 93.35-8.25 93.35-15.5L93.35-15.5Q93.35-23.75 98.35-29.4 103.35-35.05 110.65-35.05L110.65-35.05Q113.55-35.05 116.02-34.52 118.5-34 119.55-33.45L119.55-33.45 120.55-32.9 117.65-25.95Q116.15-26.95 113.6-27.83 111.05-28.7 109.1-28.7L109.1-28.7Q105.05-28.7 102.6-25.85 100.15-23 100.15-18.3L100.15-18.3Q100.15-11.95 102.47-8.4 104.8-4.85 108.95-4.85L108.95-4.85Q111.65-4.85 114.05-5.6L114.05-5.6 114.05-13.35 107.6-13.35 108.1-18.4 120.1-18.4 119.65-10.25 120-1.6Q112.65 0.55 107.9 0.55ZM135.41-24.15L135.41-24.15 141.46-25.45Q141.91-21.6 142.06-18.15L142.06-18.15Q146.61-25.2 150.61-25.2L150.61-25.2 150.06-17.4Q147.16-17.4 145.49-16.88 143.81-16.35 142.06-14.8L142.06-14.8 142.06-13 142.61-1.25 135.91 0 136.51-12.15Q136.31-18.85 135.41-24.15ZM172.18-5.1L172.18-5.1Q173.63-5.1 175.23-5.85 176.83-6.6 177.73-7.35L177.73-7.35 178.63-8.1 180.93-5.3Q180.43-4.45 179.38-3.35 178.33-2.25 177.25-1.48 176.18-0.7 174.4-0.08 172.63 0.55 170.73 0.55L170.73 0.55Q166.68 0.55 164.13-2.53 161.58-5.6 161.58-10.45L161.58-10.45Q161.58-16.55 165.13-21.15 168.68-25.75 173.43-25.75L173.43-25.75Q177.08-25.75 179.1-23.7 181.13-21.65 181.13-17.95L181.13-17.95Q181.13-15.75 180.38-12.95L180.38-12.95 179.38-11.9 166.88-10.75Q167.73-5.1 172.18-5.1ZM172.18-20.6L172.18-20.6Q169.98-20.6 168.48-18.82 166.98-17.05 166.73-14.3L166.73-14.3 175.23-15.35Q175.38-16.5 175.38-17.25L175.38-17.25Q175.38-20.6 172.18-20.6ZM203.89-5.1L203.89-5.1Q205.34-5.1 206.94-5.85 208.54-6.6 209.44-7.35L209.44-7.35 210.34-8.1 212.64-5.3Q212.14-4.45 211.09-3.35 210.04-2.25 208.97-1.48 207.89-0.7 206.12-0.08 204.34 0.55 202.44 0.55L202.44 0.55Q198.39 0.55 195.84-2.53 193.29-5.6 193.29-10.45L193.29-10.45Q193.29-16.55 196.84-21.15 200.39-25.75 205.14-25.75L205.14-25.75Q208.79-25.75 210.82-23.7 212.84-21.65 212.84-17.95L212.84-17.95Q212.84-15.75 212.09-12.95L212.09-12.95 211.09-11.9 198.59-10.75Q199.44-5.1 203.89-5.1ZM203.89-20.6L203.89-20.6Q201.69-20.6 200.19-18.82 198.69-17.05 198.44-14.3L198.44-14.3 206.94-15.35Q207.09-16.5 207.09-17.25L207.09-17.25Q207.09-20.6 203.89-20.6ZM241.11-12.65Q241.11-16.1 240.51-17.25 239.91-18.4 237.71-18.4 235.51-18.4 232.71-16.65L232.71-16.65 232.71-13 233.26-1.25 226.56 0 227.16-12.15Q226.96-18.85 226.06-24.15L226.06-24.15 232.11-25.45Q232.46-22.55 232.61-19.8L232.61-19.8Q233.36-20.8 234.31-21.78 235.26-22.75 237.31-23.98 239.36-25.2 241.63-25.2 243.91-25.2 245.46-23.43 247.01-21.65 247.01-18.6L247.01-18.6 246.71-13 247.26-1 240.51 0.25 241.11-12.65ZM267.52-3.35L267.52-3.35Q267.52 0.9 261.32 5.65L261.32 5.65 259.27 4.15Q262.22 0.7 262.22-1.8L262.22-1.8Q262.22-3.35 260.92-5.75L260.92-5.75 265.82-7.7Q267.52-5.55 267.52-3.35ZM310.7 0.55L310.7 0.55Q305.15 0.55 301.35-4.1 297.55-8.75 297.55-15.5L297.55-15.5Q297.55-23.75 302.13-29.4 306.7-35.05 313.35-35.05L313.35-35.05Q315.95-35.05 318.18-34.52 320.4-34 321.35-33.45L321.35-33.45 322.25-32.9 318.85-25.95Q317.7-26.95 315.6-27.83 313.5-28.7 311.8-28.7L311.8-28.7Q308.35-28.7 306.28-25.85 304.2-23 304.2-17.73 304.2-12.45 306.35-9.08 308.5-5.7 312.2-5.7L312.2-5.7Q314.6-5.7 316.55-7.2 318.5-8.7 319.3-11.2L319.3-11.2 323.45-8.8Q321.8-4.4 318.4-1.93 315 0.55 310.7 0.55ZM350.52-12.65Q350.52-16.1 349.92-17.25 349.32-18.4 347.12-18.4 344.92-18.4 342.12-16.65L342.12-16.65 342.12-13 342.67-1.25 335.92 0 336.52-12.15 335.92-37.45 342.77-38.7 342.12-25.75 342.12-19.9Q342.87-20.9 343.82-21.85 344.77-22.8 346.77-24 348.77-25.2 351.04-25.2 353.32-25.2 354.87-23.43 356.42-21.65 356.42-18.6L356.42-18.6 356.12-13 356.67-1 349.92 0.25 350.52-12.65ZM380.59-5.1L380.59-5.1Q382.04-5.1 383.64-5.85 385.24-6.6 386.14-7.35L386.14-7.35 387.04-8.1 389.34-5.3Q388.84-4.45 387.79-3.35 386.74-2.25 385.66-1.48 384.59-0.7 382.81-0.08 381.04 0.55 379.14 0.55L379.14 0.55Q375.09 0.55 372.54-2.53 369.99-5.6 369.99-10.45L369.99-10.45Q369.99-16.55 373.54-21.15 377.09-25.75 381.84-25.75L381.84-25.75Q385.49-25.75 387.51-23.7 389.54-21.65 389.54-17.95L389.54-17.95Q389.54-15.75 388.79-12.95L388.79-12.95 387.79-11.9 375.29-10.75Q376.14-5.1 380.59-5.1ZM380.59-20.6L380.59-20.6Q378.39-20.6 376.89-18.82 375.39-17.05 375.14-14.3L375.14-14.3 383.64-15.35Q383.79-16.5 383.79-17.25L383.79-17.25Q383.79-20.6 380.59-20.6ZM417.8-12.65Q417.8-16.1 417.2-17.25 416.6-18.4 414.4-18.4 412.2-18.4 409.4-16.65L409.4-16.65 409.4-13 409.95-1.25 403.25 0 403.85-12.15Q403.65-18.85 402.75-24.15L402.75-24.15 408.8-25.45Q409.15-22.55 409.3-19.8L409.3-19.8Q410.05-20.8 411-21.78 411.95-22.75 414-23.98 416.05-25.2 418.15-25.2 420.25-25.2 421.7-23.85 423.15-22.5 423.55-20.15L423.55-20.15Q427.7-25.2 431.95-25.2L431.95-25.2Q434.6-25.2 436.15-23.43 437.7-21.65 437.7-18.6L437.7-18.6 437.4-13 437.95-1 431.2 0.25 431.8-12.65Q431.8-16.1 431.2-17.25 430.6-18.4 428.45-18.4 426.3-18.4 423.6-16.75L423.6-16.75 423.4-13 423.95-1 417.2 0.25 417.8-12.65ZM466.12-25.25L466.12-25.25Q469.47-25.25 471.57-22.35 473.67-19.45 473.67-14.9L473.67-14.9Q473.67-8.35 470.24-4.17 466.82 0 461.37 0L461.37 0Q458.87 0 452.97-0.8L452.97-0.8 453.47-12.15 452.87-37.45 459.72-38.7 459.07-25.8 459.07-20.4Q459.62-21.2 460.42-22.1 461.22-23 462.92-24.13 464.62-25.25 466.12-25.25ZM464.17-18.75L464.17-18.75Q461.87-18.75 459.07-17.35L459.07-17.35 459.07-13 459.37-5.65Q461.47-5.4 463.32-5.4L463.32-5.4Q468.12-5.4 468.12-12.08 468.12-18.75 464.17-18.75ZM492.23 0Q489.28 0 487.41-1.88 485.53-3.75 485.53-6.93 485.53-10.1 488.43-12.43 491.33-14.75 495.48-14.75L495.48-14.75 498.88-14.75 498.88-15.6Q498.88-18.05 497.88-18.95 496.88-19.85 494.13-19.85L494.13-19.85Q492.98-19.85 491.41-19.38 489.83-18.9 487.88-17.9L487.88-17.9 486.43-21.85Q488.58-23.35 491.66-24.55 494.73-25.75 496.73-25.75L496.73-25.75Q504.58-25.75 504.58-18.15L504.58-18.15 504.58-8.35Q504.58-5.55 506.33-2.1L506.33-2.1 501.03 0.15Q499.78-2.25 499.18-4.15L499.18-4.15Q496.43 0 492.23 0L492.23 0ZM494.33-5.1L494.33-5.1Q496.33-5.1 498.88-7.15L498.88-7.15 498.88-10.5Q496.23-11.1 494.58-11.1L494.58-11.1Q491.43-11.1 491.43-8.3L491.43-8.3Q491.43-6.85 492.23-5.98 493.03-5.1 494.33-5.1Z" opacity="1" transform="matrix(1,0,0,1,0,0)" fill="#000000" class="slogan-text-1" data-fill-palette-color="secondary" id="text-1"></path></svg></g></svg></g></svg></g></svg></g><g><svg viewBox="0 0 447.74773463797624 447.74773463797624" height="447.74773463797624" width="447.74773463797624"><g><svg></svg></g><g id="icon-0"><svg viewBox="0 0 447.74773463797624 447.74773463797624" height="447.74773463797624" width="447.74773463797624"><g><path d="M0 223.874c0-123.642 100.232-223.874 223.874-223.874 123.642 0 223.874 100.232 223.874 223.874 0 123.642-100.232 223.874-223.874 223.874-123.642 0-223.874-100.232-223.874-223.874zM223.874 442.677c120.842 0 218.803-97.962 218.803-218.803 0-120.842-97.962-218.803-218.803-218.804-120.842 0-218.803 97.962-218.804 218.804 0 120.842 97.962 218.803 218.804 218.803z" data-fill-palette-color="accent" fill="#000000" stroke="transparent"></path></g><g transform="matrix(1,0,0,1,100.66497276722247,100.66497276722247)"><svg viewBox="0 0 246.4177891035313 246.4177891035313" height="246.4177891035313" width="246.4177891035313"><g><svg xmlns="http://www.w3.org/2000/svg" xmlns:xlink="http://www.w3.org/1999/xlink" version="1.1" x="0" y="0" viewBox="0 0 64 64" style="enable-background:new 0 0 64 64;" xml:space="preserve" height="246.4177891035313" width="246.4177891035313" class="icon-cg-0" data-fill-palette-color="accent" id="cg-0"><path d="M55.98 19.411C55.994 19.272 56 19.137 56 19c0-2.415-2-4.436-4-4.899 0-0.034 0-0.067 0-0.101 0-2.757-2.243-5-5-5-0.457 0-0.913 0.066-1.355 0.194C44.92 7.307 43.104 6 41 6c-0.817 0-1.624 0.21-2.348 0.602C37.718 5.585 36.412 5 35 5s-2.718 0.585-3.652 1.602C30.624 6.21 29.817 6 29 6c-2.104 0-3.92 1.307-4.645 3.194C23.913 9.066 23.456 9 23 9c-2.757 0-5 2.243-5 5 0 0.033 0 0.066 0.001 0.101C15.721 14.564 14 16.585 14 19c0 0.137 0.006 0.272 0.02 0.411C12.224 20.19 11 21.987 11 24c0 2.757 2.243 5 5 5h21v6.414l8 8V64h2V42.586l-8-8V29h14v35h2V28.899c2.279-0.465 4-2.484 4-4.899C59 21.987 57.776 20.19 55.98 19.411zM54 27H42.92c-0.488-3.386-3.401-6-6.92-6v2c2.414 0 4.434 1.721 4.899 4H22.184c0.414-1.162 1.514-2 2.816-2v-2c-2.414 0-4.434 1.721-4.899 4H16c-1.654 0-3-1.346-3-3 0-1.408 0.999-2.642 2.376-2.933l0.067-0.014C16.333 21.256 17 22.05 17 23h2c0-1.854-1.274-3.403-2.988-3.854C16.009 19.098 16 19.046 16 19c0-1.654 1.346-3 2.938-3.003L19 16v0c1.466 0 2.685 1.058 2.944 2.45C21.364 19.144 21 20.026 21 21h2c0-1.103 0.897-2 2-2v-2c-0.47 0-0.915 0.096-1.334 0.246-0.598-1.586-1.966-2.796-3.658-3.144C20.007 14.069 20 14.033 20 14c0-1.654 1.346-3 3-3 0.347 0 0.682 0.085 1.011 0.209C24.122 14.42 26.762 17 30 17v-2c-2.201 0-3.991-1.786-3.999-3.986l0.035-0.331C26.2 9.154 27.474 8 29 8c0.385 0 0.716 0.082 1.01 0.193C30.113 11.412 32.757 14 36 14v-2c-1.867 0-3.426-1.29-3.865-3.023l0.299-0.503C32.984 7.552 33.944 7 35 7s2.016 0.552 2.566 1.475L38.17 9.49l0.901-0.765C39.462 8.394 40.113 8 41 8c1.489 0 2.731 1.102 2.942 2.576C43.652 13.059 41.56 15 39 15v2c3.43 0 6.286-2.482 6.881-5.743C46.243 11.104 46.614 11 47 11c1.654 0 3 1.346 3 3 0 0.026-0.005 0.055-0.006 0.081-2.79 0.405-5.046 2.455-5.755 5.136C43.847 19.087 43.435 19 43 19v2c1.103 0 2 0.897 2 2h2c0-0.974-0.364-1.856-0.944-2.55 0.272-2.444 2.293-4.356 4.79-4.434l0.048-0.002C50.951 16.012 51.006 16.005 51 16c1.654 0 3 1.346 3 3 0 0.033-0.007 0.069-0.009 0.102C51.716 19.57 50 21.589 50 24h2c0-1.493 1.1-2.725 2.53-2.952l0.094 0.02C56.001 21.358 57 22.592 57 24 57 25.654 55.654 27 54 27z" fill="#000000" data-fill-palette-color="accent"></path><path d="M35 0C19.009 0 6 13.01 6 29v15h6v13h19v7h2v-7h2v-2h-2-2H14V42H8V29C8 14.112 20.112 2 35 2s27 12.112 27 27v35h2V29C64 13.01 50.991 0 35 0z" fill="#000000" data-fill-palette-color="accent"></path><path d="M32.441 18.213C29.887 18.902 28 21.232 28 24h2c0-2.206 1.794-4 4-4 0-1.103 0.897-2 2-2v-2C34.44 16 33.1 16.906 32.441 18.213z" fill="#000000" data-fill-palette-color="accent"></path><polygon points="10,6 12,6 12,4 14,4 14,2 12,2 12,0 10,0 10,2 8,2 8,4 10,4 " fill="#000000" data-fill-palette-color="accent"></polygon><polygon points="6,7 6,5 4,5 4,3 2,3 2,5 0,5 0,7 2,7 2,9 4,9 4,7 " fill="#000000" data-fill-palette-color="accent"></polygon><rect x="49" y="31" width="2" height="2" fill="#000000" data-fill-palette-color="accent"></rect><rect x="45" y="31" width="2" height="2" fill="#000000" data-fill-palette-color="accent"></rect><rect x="41" y="31" width="2" height="2" fill="#000000" data-fill-palette-color="accent"></rect><rect x="49" y="35" width="2" height="2" fill="#000000" data-fill-palette-color="accent"></rect><rect x="45" y="35" width="2" height="2" fill="#000000" data-fill-palette-color="accent"></rect><rect x="49" y="39" width="2" height="2" fill="#000000" data-fill-palette-color="accent"></rect></svg></g></svg></g></svg></g></svg></g></svg></g></svg></g><defs></defs></svg><rect width="395.52" height="203.59883375075816" fill="none" stroke="none" visibility="hidden"></rect></g></svg></g></svg>